inDegrees=yes
name=ik_lifting_orientations
DataType=double
version=3
OpenSimVersion=4.5-2024-01-10-34fd6af
endheader
time	pelvis_tilt	pelvis_list	pelvis_rotation	pelvis_tx	pelvis_ty	pelvis_tz	hip_flexion_r	hip_adduction_r	hip_rotation_r	knee_angle_r	knee_angle_r_beta	ankle_angle_r	subtalar_angle_r	mtp_angle_r	hip_flexion_l	hip_adduction_l	hip_rotation_l	knee_angle_l	knee_angle_l_beta	ankle_angle_l	subtalar_angle_l	mtp_angle_l	lumbar_extension	lumbar_bending	lumbar_rotation	arm_flex_r	arm_add_r	arm_rot_r	elbow_flex_r	pro_sup_r	wrist_flex_r	wrist_dev_r	arm_flex_l	arm_add_l	arm_rot_l	elbow_flex_l	pro_sup_l	wrist_flex_l	wrist_dev_l
0.02	-0.001718148207743677	0.003214265876455434	94.79374700767897	0	0.9399999998679526	0	15.68387665388445	-7.348918679939849	0	22.26860375602386	0.3886604553645924	-4.254698932592576	0	0	15.68387665388445	-7.348918679939849	0	22.26860375602386	0.3886604553645924	-4.254698932592576	0	0	-0.002739798298326532	0.006030151751420736	0.0005283334403477097	-0.2392385764467153	-0.06544298156969522	-0.006829716749241609	0.494628558790027	58.74714900899766	0	0	0	-2.341384783261372	0	31.46264345237588	58.74714900899766	0	0
0.03	-0.001405364662790932	0.006408882933779404	94.79488837485103	0	0.9399999998679526	0	17.46041722802711	-7.733989455608526	0	24.46283806902694	0.4269570686867319	-4.382764604487671	0	0	17.46041722802711	-7.733989455608526	0	24.46283806902694	0.4269570686867319	-4.382764604487671	0	0	-0.003176469684866923	0.001114060880366132	-9.612094743373713e-05	-0.2406769147968713	-0.05802033278855376	-0.005426471944253212	0.4885650880660905	55.5499160553344	0	0	0	-2.727817970408436	0	34.64209822129784	55.5499160553344	0	0
0.04	-0.008017938282896715	-0.004042747152395452	94.80868700913126	0	0.9399999998679526	0	17.46407787682876	-7.734902629131735	0	24.46776826069648	0.4270431167641199	-4.383088010530158	0	0	17.46407787682876	-7.734902629131735	0	24.46776826069648	0.4270431167641199	-4.383088010530158	0	0	0.006968165890139224	-0.01518735906167383	-0.02382423373818759	-0.1792891287588014	-0.1737079507918002	-0.1875283474200628	0.5617029822380651	55.54276473873999	0	0	0	-2.728552826905041	0	34.64919508513773	55.54276473873999	0	0
0.05	0.001021291137148197	-0.01174110782466813	94.79211505435175	0	0.9399999998679526	0	17.47215790617932	-7.736923266755347	0	24.47863604494479	0.4272327953816492	-4.38380400530146	0	0	17.47215790617932	-7.736923266755347	0	24.47863604494479	0.4272327953816492	-4.38380400530146	0	0	0.01931944443541894	0.001863674627498321	0.001262247014671614	0.8650057730770949	-0.3357969475198622	-0.008774211585604484	0.5132302068960782	55.52696816055984	0	0	0	-2.730170381181936	0	34.66487105949394	55.52696816055984	0	0
0.06	0.0003739561792838706	0.002707571277461606	94.79301903894628	0	0.9399999998679526	0	17.48297093769612	-7.739628424894976	0	24.49316969415078	0.4274864554126236	-4.384762492086926	0	0	17.48297093769612	-7.739628424894976	0	24.49316969415078	0.4274864554126236	-4.384762492086926	0	0	-0.007867894117702572	0.0007975649690010655	0.001207702858885271	0.6746473405120071	-1.100053345698212	-0.7706410671837354	0.9429831333886056	55.50582784621184	0	0	0	-2.73233345344338	0	34.68584994595732	55.50582784621184	0	0
0.07000000000000001	-0.001758592730169654	-0.01251967353075059	94.79334422926519	0	0.9399999998679526	0	17.49212161114728	-7.741882806513193	0	24.50553693280344	0.4277023044464924	-4.385558030232191	0	0	17.49212161114728	-7.741882806513193	0	24.50553693280344	0.4277023044464924	-4.385558030232191	0	0	-0.5667888721403058	0.7150027869778051	0.2246548790741181	2.065687315132398	-1.860554681811645	-1.064502167376457	0.3522012086147381	55.48802696934964	0	0	0	-2.734191968138018	0	34.70351732614468	55.48802696934964	0	0
0.08	-0.005625271646601379	0.007704828949096249	94.78943779422332	0	0.9399999998679526	0	17.50368251334809	-7.744770523165133	0	24.52106796276415	0.4279733720555328	-4.386580463520612	0	0	17.50368251334809	-7.744770523165133	0	24.52106796276415	0.4279733720555328	-4.386580463520612	0	0	-0.6042642104057467	0.7200806519430298	0.2332195709898233	2.721073807537616	-1.520967850471119	-1.533878195708402	0.1473789455581467	55.465440679602	0	0	0	-2.736506850522467	0	34.72593156765598	55.465440679602	0	0
0.09	0.001625418181612304	-0.0007328074749064746	94.79574425303238	0	0.9399999998679526	0	17.51361914264399	-7.74725194284185	0	24.53440965974389	0.4282062285956326	-4.387458811540291	0	0	17.51361914264399	-7.74725194284185	0	24.53440965974389	0.4282062285956326	-4.387458811540291	0	0	-1.512606322626812	0.5846855975756259	-1.067559137139505	3.7837008365336	-2.030829156936257	-0.9994186094549223	0.1854837310141801	55.44603105743819	0	0	0	-2.738496060811343	0	34.74519342503446	55.44603105743819	0	0
0.1	0.6695922953313813	-0.3581355486420088	93.98915805045351	0	0.9399999998679526	0	17.52613157581574	-7.750367304538499	0	24.55121967013028	0.4284996186241695	-4.38856055679336	0	0	17.52613157581574	-7.750367304538499	0	24.55121967013028	0.4284996186241695	-4.38856055679336	0	0	-1.119695028859778	1.206007488791905	-0.2422719190271296	3.984953399993945	-2.206112460245151	-1.608779651592761	0.08008145746537962	55.42161654322427	0	0	0	-2.74100790259561	0	34.76942278060994	55.42161654322427	0	0
0.11	0.3568142985727944	-1.118043779221204	93.77178600994307	0	0.9399999998679526	0	17.80345729616958	-7.801053873323225	0	24.95780621673901	0.4355958925568053	-4.404889612087456	0	0	17.80345729616958	-7.801053873323225	0	24.95780621673901	0.4355958925568053	-4.404889612087456	0	0	-1.189793109583221	1.840770433093111	4.343102558319276	4.662656967792001	-3.946587643113431	-6.191869853933271	0.08437147379223024	54.92537754663451	0	0	0	-2.811969038411851	0	35.26312624518022	54.92537754663451	0	0
0.12	-0.5232079111236309	-1.517934767291313	94.98717891452218	0	0.9399999998679526	0	17.81569869736919	-7.804055557858711	0	24.97410899139569	0.435880429651775	-4.405945044466407	0	0	17.81569869736919	-7.804055557858711	0	24.97410899139569	0.435880429651775	-4.405945044466407	0	0	-1.200035253682266	1.441775210601355	2.405866964901526	5.063152750165769	-4.389846697163308	-5.454936202158701	0.08432168404512935	54.90168878088868	0	0	0	-2.814457005204038	0	35.28664005775415	54.90168878088868	0	0
0.13	0.1397947780672436	-2.497424409110053	96.08227817432019	0	0.9399999998679526	0	18.07237164679526	-7.851041447010047	0	25.35005823781648	0.4424419818222092	-4.421110096176287	0	0	18.07237164679526	-7.851041447010047	0	25.35005823781648	0.4424419818222092	-4.421110096176287	0	0	-2.342848970417851	3.281284701446462	6.683719670224269	6.485768366234128	-6.661778218868641	-10.99362845290933	0.1002038519948533	54.44279961777218	0	0	0	-2.880267169542232	0	35.74319251832372	54.44279961777218	0	0
0.14	0.3447571702462001	-2.313833653316605	97.54342370675062	0	0.9399999998679526	0	18.23405091004605	-7.880261262641918	0	25.588700717538	0.4466070788284736	-4.430523402778683	0	0	18.23405091004605	-7.880261262641918	0	25.588700717538	0.4466070788284736	-4.430523402778683	0	0	-4.397865892256656	5.619874483831964	9.367486192470347	6.892022720515038	-9.615969413382008	-14.78960284403398	0.06179500344635372	54.15517958057506	0	0	0	-2.922279530359368	0	36.02938811870543	54.15517958057506	0	0
0.15	1.023501535371895	-3.237907140353789	98.65654251542195	0	0.9399999998679526	0	18.24611683720666	-7.883184381643928	0	25.60449299656317	0.4468827060938566	-4.431544912788991	0	0	18.24611683720666	-7.883184381643928	0	25.60449299656317	0.4468827060938566	-4.431544912788991	0	0	-5.1808251740225	6.86860572394869	11.57794994046873	7.732002334135087	-11.68152854886501	-17.8551899668463	0.07295777585463585	54.13202587422816	0	0	0	-2.924749109867353	0	36.05237518467643	54.13202587422816	0	0
0.16	1.079901605674692	-3.829413977131584	100.562344044302	0	0.9399999998679526	0	18.25524579304788	-7.885390275242235	0	25.61644836295968	0.4470913666007578	-4.432315164786202	0	0	18.25524579304788	-7.885390275242235	0	25.61644836295968	0.4470913666007578	-4.432315164786202	0	0	-5.897883618605944	8.536644902979154	11.64953919942889	8.60523684198921	-13.72090956683429	-19.39493860014591	0.07337669177662764	54.11452202828394	0	0	0	-2.926621768436118	0	36.06975344302545	54.11452202828394	0	0
0.17	1.52192464177181	-5.475136208732062	101.4243141563697	0	0.9399999998679526	0	18.26312253047476	-7.887289252515164	0	25.62676988213097	0.4472715110941046	-4.432977798807459	0	0	18.26312253047476	-7.887289252515164	0	25.62676988213097	0.4472715110941046	-4.432977798807459	0	0	-4.781283043132556	8.270206105415438	11.4238410069013	8.970881746332996	-13.77412519489802	-20.43272521757937	0.08495870037978027	54.09942981682832	0	0	0	-2.928240888949843	0	36.08473766622775	54.09942981682832	0	0
0.18	1.492803529090405	-6.867602895145462	103.8054083125614	0	0.9399999998679526	0	18.27629081378986	-7.890469829968967	0	25.64399985869214	0.4475722309151384	-4.434087916023242	0	0	18.27629081378986	-7.890469829968967	0	25.64399985869214	0.4475722309151384	-4.434087916023242	0	0	-4.573412005995958	9.651590797329121	11.00191109421794	9.662573139218384	-16.29683759612695	-22.02498470648539	0.05199878751529765	54.0741884896923	0	0	0	-2.930941622789178	0	36.10979806554727	54.0741884896923	0	0
0.19	2.013100970471997	-8.480591641354335	104.6957644397127	0	0.9399999998679526	0	18.2863770133969	-7.892903911941943	0	25.6571933813215	0.4478025013249572	-4.434937124960654	0	0	18.2863770133969	-7.892903911941943	0	25.6571933813215	0.4478025013249572	-4.434937124960654	0	0	-4.580003936746384	10.27561266792226	12.40789156770252	10.80568835803891	-17.43304394710756	-23.8410800821838	0.05180616821129412	54.05486116149635	0	0	0	-2.933011019244439	0	36.12898701959462	54.05486116149635	0	0
0.2	1.820226919673392	-10.14093690310483	105.6814606162079	0	0.9399999998679526	0	18.31776170886522	-7.900439433173438	0	25.69824205739854	0.4485189358760862	-4.437559737168291	0	0	18.31776170886522	-7.900439433173438	0	25.69824205739854	0.4485189358760862	-4.437559737168291	0	0	-6.586837809381079	11.40940764208138	13.19841459985664	13.93757973026423	-21.04457493178709	-24.60012878885935	0.03987878010358183	53.99479265931471	0	0	0	-2.939458380809089	0	36.18862761466779	53.99479265931471	0	0
